# Blender v3.4.1 OBJ File: ''
# www.blender.org
mtllib Tiles.mtl
o Plane.001
v 1.000000 -1.000000 -5.000000
v 1.000000 1.000000 -5.000000
v 3.000000 -1.000000 -5.000000
v 3.000000 1.000000 -5.000000
vt 1.000000 0.000000
vt 0.000000 1.000000
vt 0.000000 0.000000
vt 1.000000 1.000000
vn 0.0000 0.0000 -1.0000
usemtl Material.002
s off
f 2/1/1 3/2/1 1/3/1
f 2/1/1 4/4/1 3/2/1
o Plane.003
v 3.000000 -1.000000 -5.000000
v 3.000000 1.000000 -5.000000
v 5.000000 -1.000000 -5.000000
v 5.000000 1.000000 -5.000000
vt 1.000000 0.000000
vt 0.000000 1.000000
vt 0.000000 0.000000
vt 1.000000 1.000000
vn 0.0000 0.0000 -1.0000
s off
o Plane.004
v -1.000000 -1.000000 -5.000000
v -1.000000 1.000000 -5.000000
v 1.000000 -1.000000 -5.000000
v 1.000000 1.000000 -5.000000
vt 1.000000 0.000000
vt 0.000000 1.000000
vt 0.000000 0.000000
vt 1.000000 1.000000
vn 0.0000 0.0000 -1.0000
usemtl Material.001
s off
f 10/9/3 11/10/3 9/11/3
f 10/9/3 12/12/3 11/10/3
